<svg width="104" height="33" viewBox="0 0 104 33" fill="none" xmlns="http://www.w3.org/2000/svg">
<path d="M6.4 27.2C9.93462 27.2 12.8 24.3346 12.8 20.8C12.8 17.2654 9.93462 14.4 6.4 14.4C2.86538 14.4 0 17.2654 0 20.8C0 24.3346 2.86538 27.2 6.4 27.2Z" fill="#6E56E0"/>
<path d="M21.6 32C23.8091 32 25.6 30.2091 25.6 28C25.6 25.7909 23.8091 24 21.6 24C19.3908 24 17.6 25.7909 17.6 28C17.6 30.2091 19.3908 32 21.6 32Z" fill="#6E56E0"/>
<path d="M22.4 19.2C27.702 19.2 32 14.9019 32 9.6C32 4.29807 27.702 0 22.4 0C17.0981 0 12.8 4.29807 12.8 9.6C12.8 14.9019 17.0981 19.2 22.4 19.2Z" fill="#6E56E0"/>
<g filter="url(#filter0_d_2475_1289)">
<mask id="path-4-outside-1_2475_1289" maskUnits="userSpaceOnUse" x="40" y="6.5" width="61" height="19" fill="black">
<rect fill="white" x="40" y="6.5" width="61" height="19"/>
<path d="M50.6677 8.19563H54.1615V24.5H50.6677V17.5124H44.8913V24.5H41.3975V8.19563H44.8913V14.0186H50.6677V8.19563ZM56.9558 24.5V8.19563L63.594 8.19563C64.4869 8.19563 65.2943 8.42078 66.0164 8.87109C66.7384 9.3214 67.3091 9.927 67.7284 10.6879C68.1554 11.441 68.3689 12.2717 68.3689 13.1801C68.3689 13.8789 68.2524 14.531 68.0195 15.1366C67.7866 15.7345 67.4527 16.2663 67.0179 16.7321C66.5909 17.1902 66.0863 17.559 65.504 17.8385L69.3704 24.5L65.3409 24.5L61.6608 18.1646H60.4496V24.5H56.9558ZM60.4496 14.6708H63.1748C63.4853 14.6708 63.7687 14.5932 64.0249 14.4379C64.2811 14.2748 64.4869 14.0613 64.6422 13.7973C64.7974 13.5334 64.8751 13.2422 64.8751 12.9239C64.8751 12.6056 64.7974 12.3144 64.6422 12.0504C64.4869 11.7865 64.2811 11.5768 64.0249 11.4216C63.7687 11.2585 63.4853 11.177 63.1748 11.177H60.4496V14.6708ZM80.5105 8.19563H84.0043V24.5H80.5105V17.5124H74.7341V24.5H71.2403V8.19563L74.7341 8.19563V14.0186L80.5105 14.0186V8.19563ZM86.7986 24.5V8.19563H93.4369C94.3297 8.19563 95.1372 8.42078 95.8592 8.87109C96.5813 9.3214 97.1519 9.927 97.5712 10.6879C97.9982 11.441 98.2117 12.2717 98.2117 13.1801C98.2117 13.8789 98.0953 14.531 97.8623 15.1366C97.6294 15.7345 97.2956 16.2663 96.8608 16.7321C96.4338 17.1902 95.9291 17.559 95.3468 17.8385L99.2133 24.5H95.1838L91.5036 18.1646H90.2924V24.5H86.7986ZM90.2924 14.6708H93.0176C93.3282 14.6708 93.6115 14.5932 93.8678 14.4379C94.124 14.2748 94.3297 14.0613 94.485 13.7973C94.6403 13.5334 94.7179 13.2422 94.7179 12.9239C94.7179 12.6056 94.6403 12.3144 94.485 12.0504C94.3297 11.7865 94.124 11.5768 93.8678 11.4216C93.6115 11.2585 93.3282 11.177 93.0176 11.177H90.2924V14.6708Z"/>
</mask>
<path d="M50.6677 8.19563H54.1615V24.5H50.6677V17.5124H44.8913V24.5H41.3975V8.19563H44.8913V14.0186H50.6677V8.19563ZM56.9558 24.5V8.19563L63.594 8.19563C64.4869 8.19563 65.2943 8.42078 66.0164 8.87109C66.7384 9.3214 67.3091 9.927 67.7284 10.6879C68.1554 11.441 68.3689 12.2717 68.3689 13.1801C68.3689 13.8789 68.2524 14.531 68.0195 15.1366C67.7866 15.7345 67.4527 16.2663 67.0179 16.7321C66.5909 17.1902 66.0863 17.559 65.504 17.8385L69.3704 24.5L65.3409 24.5L61.6608 18.1646H60.4496V24.5H56.9558ZM60.4496 14.6708H63.1748C63.4853 14.6708 63.7687 14.5932 64.0249 14.4379C64.2811 14.2748 64.4869 14.0613 64.6422 13.7973C64.7974 13.5334 64.8751 13.2422 64.8751 12.9239C64.8751 12.6056 64.7974 12.3144 64.6422 12.0504C64.4869 11.7865 64.2811 11.5768 64.0249 11.4216C63.7687 11.2585 63.4853 11.177 63.1748 11.177H60.4496V14.6708ZM80.5105 8.19563H84.0043V24.5H80.5105V17.5124H74.7341V24.5H71.2403V8.19563L74.7341 8.19563V14.0186L80.5105 14.0186V8.19563ZM86.7986 24.5V8.19563H93.4369C94.3297 8.19563 95.1372 8.42078 95.8592 8.87109C96.5813 9.3214 97.1519 9.927 97.5712 10.6879C97.9982 11.441 98.2117 12.2717 98.2117 13.1801C98.2117 13.8789 98.0953 14.531 97.8623 15.1366C97.6294 15.7345 97.2956 16.2663 96.8608 16.7321C96.4338 17.1902 95.9291 17.559 95.3468 17.8385L99.2133 24.5H95.1838L91.5036 18.1646H90.2924V24.5H86.7986ZM90.2924 14.6708H93.0176C93.3282 14.6708 93.6115 14.5932 93.8678 14.4379C94.124 14.2748 94.3297 14.0613 94.485 13.7973C94.6403 13.5334 94.7179 13.2422 94.7179 12.9239C94.7179 12.6056 94.6403 12.3144 94.485 12.0504C94.3297 11.7865 94.124 11.5768 93.8678 11.4216C93.6115 11.2585 93.3282 11.177 93.0176 11.177H90.2924V14.6708Z" fill="white"/>
<path d="M50.6677 8.19563V7.19563H49.6677V8.19563H50.6677ZM54.1615 8.19563H55.1615V7.19563H54.1615V8.19563ZM54.1615 24.5V25.5H55.1615V24.5H54.1615ZM50.6677 24.5H49.6677V25.5H50.6677V24.5ZM50.6677 17.5124H51.6677V16.5124H50.6677V17.5124ZM44.8913 17.5124V16.5124H43.8913V17.5124H44.8913ZM44.8913 24.5V25.5H45.8913V24.5H44.8913ZM41.3975 24.5H40.3975V25.5H41.3975V24.5ZM41.3975 8.19563V7.19563H40.3975V8.19563H41.3975ZM44.8913 8.19563H45.8913V7.19563H44.8913V8.19563ZM44.8913 14.0186H43.8913V15.0186H44.8913V14.0186ZM50.6677 14.0186V15.0186H51.6677V14.0186H50.6677ZM50.6677 9.19563H54.1615V7.19563H50.6677V9.19563ZM53.1615 8.19563V24.5H55.1615V8.19563H53.1615ZM54.1615 23.5H50.6677V25.5H54.1615V23.5ZM51.6677 24.5V17.5124H49.6677V24.5H51.6677ZM50.6677 16.5124H44.8913V18.5124H50.6677V16.5124ZM43.8913 17.5124V24.5H45.8913V17.5124H43.8913ZM44.8913 23.5H41.3975V25.5H44.8913V23.5ZM42.3975 24.5V8.19563H40.3975V24.5H42.3975ZM41.3975 9.19563H44.8913V7.19563H41.3975V9.19563ZM43.8913 8.19563V14.0186H45.8913V8.19563H43.8913ZM44.8913 15.0186H50.6677V13.0186H44.8913V15.0186ZM51.6677 14.0186V8.19563H49.6677V14.0186H51.6677ZM56.9558 24.5H55.9558V25.5H56.9558V24.5ZM56.9558 8.19563V7.19563H55.9558V8.19563H56.9558ZM66.0164 8.87109L65.4872 9.7196L65.4872 9.7196L66.0164 8.87109ZM67.7284 10.6879L66.8525 11.1705L66.8585 11.1811L67.7284 10.6879ZM68.0195 15.1366L68.9513 15.4997L68.9528 15.4956L68.0195 15.1366ZM67.0179 16.7321L66.2869 16.0498L66.2865 16.0503L67.0179 16.7321ZM65.504 17.8385L65.0712 16.937L64.0961 17.405L64.6391 18.3405L65.504 17.8385ZM69.3704 24.5V25.5H71.1071L70.2353 23.998L69.3704 24.5ZM65.3409 24.5L64.4762 25.0023L64.7653 25.5H65.3409V24.5ZM61.6608 18.1646L62.5255 17.6623L62.2364 17.1646H61.6608V18.1646ZM60.4496 18.1646V17.1646H59.4496V18.1646H60.4496ZM60.4496 24.5V25.5H61.4496V24.5H60.4496ZM60.4496 14.6708H59.4496V15.6708H60.4496V14.6708ZM64.0249 14.4379L64.5432 15.2931L64.5526 15.2874L64.5618 15.2815L64.0249 14.4379ZM64.6422 13.7973L65.5041 14.3044L65.5041 14.3044L64.6422 13.7973ZM64.6422 12.0504L63.7802 12.5575L63.7802 12.5575L64.6422 12.0504ZM64.0249 11.4216L63.4881 12.2652L63.4973 12.2711L63.5066 12.2768L64.0249 11.4216ZM60.4496 11.177V10.177H59.4496V11.177H60.4496ZM57.9558 24.5V8.19563H55.9558V24.5H57.9558ZM56.9558 9.19563L63.594 9.19563V7.19563L56.9558 7.19563V9.19563ZM63.594 9.19563C64.3095 9.19563 64.9319 9.37328 65.4872 9.7196L66.5456 8.02258C65.6568 7.46828 64.6643 7.19563 63.594 7.19563V9.19563ZM65.4872 9.7196C66.0612 10.0776 66.5139 10.5559 66.8525 11.1705L68.6042 10.2053C68.1043 9.29809 67.4157 8.56521 66.5456 8.02258L65.4872 9.7196ZM66.8585 11.1811C67.1959 11.7763 67.3689 12.4358 67.3689 13.1801H69.3689C69.3689 12.1077 69.1148 11.1056 68.5982 10.1946L66.8585 11.1811ZM67.3689 13.1801C67.3689 13.7656 67.2717 14.2952 67.0862 14.7777L68.9528 15.4956C69.2331 14.7669 69.3689 13.9921 69.3689 13.1801H67.3689ZM67.0877 14.7736C66.9005 15.2541 66.6345 15.6774 66.2869 16.0498L67.749 17.4144C68.2709 16.8552 68.6726 16.2149 68.9513 15.4997L67.0877 14.7736ZM66.2865 16.0503C65.9472 16.4143 65.5447 16.7097 65.0712 16.937L65.9367 18.74C66.6278 18.4083 67.2347 17.9662 67.7494 17.414L66.2865 16.0503ZM64.6391 18.3405L68.5056 25.002L70.2353 23.998L66.3688 17.3365L64.6391 18.3405ZM69.3704 23.5L65.3409 23.5V25.5L69.3704 25.5V23.5ZM66.2056 23.9977L62.5255 17.6623L60.7961 18.6669L64.4762 25.0023L66.2056 23.9977ZM61.6608 17.1646H60.4496V19.1646H61.6608V17.1646ZM59.4496 18.1646V24.5H61.4496V18.1646H59.4496ZM60.4496 23.5H56.9558V25.5H60.4496V23.5ZM60.4496 15.6708H63.1748V13.6708H60.4496V15.6708ZM63.1748 15.6708C63.6611 15.6708 64.1248 15.5466 64.5432 15.2931L63.5066 13.5827C63.4126 13.6397 63.3096 13.6708 63.1748 13.6708V15.6708ZM64.5618 15.2815C64.9526 15.0328 65.2693 14.7035 65.5041 14.3044L63.7802 13.2903C63.7045 13.4192 63.6096 13.5168 63.4881 13.5942L64.5618 15.2815ZM65.5041 14.3044C65.7534 13.8805 65.8751 13.4132 65.8751 12.9239H63.8751C63.8751 13.0713 63.8415 13.1862 63.7802 13.2903L65.5041 14.3044ZM65.8751 12.9239C65.8751 12.4346 65.7534 11.9673 65.5041 11.5434L63.7802 12.5575C63.8415 12.6616 63.8751 12.7765 63.8751 12.9239H65.8751ZM65.5041 11.5434C65.2668 11.14 64.9443 10.8094 64.5432 10.5664L63.5066 12.2768C63.618 12.3443 63.707 12.4329 63.7802 12.5575L65.5041 11.5434ZM64.5618 10.5779C64.1414 10.3103 63.671 10.177 63.1748 10.177V12.177C63.2997 12.177 63.3961 12.2067 63.4881 12.2652L64.5618 10.5779ZM63.1748 10.177H60.4496V12.177H63.1748V10.177ZM59.4496 11.177V14.6708H61.4496V11.177H59.4496ZM80.5105 8.19563V7.19563H79.5105V8.19563H80.5105ZM84.0043 8.19563H85.0043V7.19563H84.0043V8.19563ZM84.0043 24.5V25.5H85.0043V24.5H84.0043ZM80.5105 24.5H79.5105V25.5H80.5105V24.5ZM80.5105 17.5124H81.5105V16.5124H80.5105V17.5124ZM74.7341 17.5124V16.5124H73.7341V17.5124H74.7341ZM74.7341 24.5V25.5H75.7341V24.5H74.7341ZM71.2403 24.5H70.2403V25.5H71.2403V24.5ZM71.2403 8.19563V7.19563H70.2403V8.19563H71.2403ZM74.7341 8.19563H75.7341V7.19563H74.7341V8.19563ZM74.7341 14.0186H73.7341V15.0186H74.7341V14.0186ZM80.5105 14.0186V15.0186H81.5105V14.0186H80.5105ZM80.5105 9.19563H84.0043V7.19563H80.5105V9.19563ZM83.0043 8.19563V24.5H85.0043V8.19563H83.0043ZM84.0043 23.5H80.5105V25.5H84.0043V23.5ZM81.5105 24.5V17.5124H79.5105V24.5H81.5105ZM80.5105 16.5124L74.7341 16.5124V18.5124H80.5105V16.5124ZM73.7341 17.5124V24.5H75.7341V17.5124H73.7341ZM74.7341 23.5H71.2403V25.5H74.7341V23.5ZM72.2403 24.5V8.19563H70.2403V24.5H72.2403ZM71.2403 9.19563L74.7341 9.19563V7.19563L71.2403 7.19563V9.19563ZM73.7341 8.19563V14.0186H75.7341V8.19563H73.7341ZM74.7341 15.0186L80.5105 15.0186V13.0186L74.7341 13.0186V15.0186ZM81.5105 14.0186V8.19563H79.5105V14.0186L81.5105 14.0186ZM86.7986 24.5H85.7986V25.5H86.7986V24.5ZM86.7986 8.19563V7.19563L85.7986 7.19563V8.19563H86.7986ZM95.8592 8.87109L95.33 9.7196L95.33 9.7196L95.8592 8.87109ZM97.5712 10.6879L96.6953 11.1705L96.7013 11.1811L97.5712 10.6879ZM97.8623 15.1366L98.7941 15.4997L98.7957 15.4956L97.8623 15.1366ZM96.8608 16.7321L96.1297 16.0498L96.1293 16.0503L96.8608 16.7321ZM95.3468 17.8385L94.9141 16.937L93.939 17.405L94.4819 18.3405L95.3468 17.8385ZM99.2133 24.5V25.5H100.95L100.078 23.998L99.2133 24.5ZM95.1838 24.5L94.3191 25.0023L94.6082 25.5H95.1838V24.5ZM91.5036 18.1646L92.3683 17.6623L92.0792 17.1646H91.5036V18.1646ZM90.2924 18.1646V17.1646H89.2924V18.1646H90.2924ZM90.2924 24.5V25.5H91.2924V24.5H90.2924ZM90.2924 14.6708H89.2924V15.6708H90.2924V14.6708ZM93.8678 14.4379L94.3861 15.2931L94.3954 15.2874L94.4046 15.2815L93.8678 14.4379ZM94.485 13.7973L95.3469 14.3044L95.3469 14.3044L94.485 13.7973ZM94.485 12.0504L93.6231 12.5575L93.6231 12.5575L94.485 12.0504ZM93.8678 11.4216L93.3309 12.2652L93.3401 12.2711L93.3495 12.2768L93.8678 11.4216ZM90.2924 11.177V10.177H89.2924V11.177H90.2924ZM87.7986 24.5V8.19563H85.7986V24.5H87.7986ZM86.7986 9.19563H93.4369V7.19563H86.7986V9.19563ZM93.4369 9.19563C94.1523 9.19563 94.7747 9.37328 95.33 9.7196L96.3884 8.02258C95.4996 7.46828 94.5072 7.19563 93.4369 7.19563V9.19563ZM95.33 9.7196C95.9041 10.0776 96.3567 10.5559 96.6953 11.1705L98.447 10.2053C97.9471 9.29809 97.2585 8.56521 96.3884 8.02258L95.33 9.7196ZM96.7013 11.1811C97.0388 11.7763 97.2117 12.4358 97.2117 13.1801H99.2117C99.2117 12.1077 98.9576 11.1056 98.4411 10.1946L96.7013 11.1811ZM97.2117 13.1801C97.2117 13.7656 97.1146 14.2952 96.929 14.7777L98.7957 15.4956C99.0759 14.7669 99.2117 13.9921 99.2117 13.1801H97.2117ZM96.9306 14.7736C96.7434 15.2541 96.4773 15.6774 96.1297 16.0498L97.5918 17.4144C98.1138 16.8552 98.5155 16.2149 98.7941 15.4997L96.9306 14.7736ZM96.1293 16.0503C95.79 16.4143 95.3876 16.7097 94.9141 16.937L95.7795 18.74C96.4706 18.4083 97.0775 17.9662 97.5922 17.414L96.1293 16.0503ZM94.4819 18.3405L98.3484 25.002L100.078 23.998L96.2117 17.3365L94.4819 18.3405ZM99.2133 23.5H95.1838V25.5H99.2133V23.5ZM96.0485 23.9977L92.3683 17.6623L90.6389 18.6669L94.3191 25.0023L96.0485 23.9977ZM91.5036 17.1646H90.2924V19.1646H91.5036V17.1646ZM89.2924 18.1646V24.5H91.2924V18.1646H89.2924ZM90.2924 23.5H86.7986V25.5H90.2924V23.5ZM90.2924 15.6708H93.0176V13.6708H90.2924V15.6708ZM93.0176 15.6708C93.5039 15.6708 93.9677 15.5466 94.3861 15.2931L93.3495 13.5827C93.2554 13.6397 93.1524 13.6708 93.0176 13.6708V15.6708ZM94.4046 15.2815C94.7955 15.0328 95.1122 14.7035 95.3469 14.3044L93.6231 13.2903C93.5473 13.4192 93.4525 13.5168 93.3309 13.5942L94.4046 15.2815ZM95.3469 14.3044C95.5963 13.8805 95.7179 13.4132 95.7179 12.9239H93.7179C93.7179 13.0713 93.6843 13.1862 93.6231 13.2903L95.3469 14.3044ZM95.7179 12.9239C95.7179 12.4346 95.5963 11.9673 95.3469 11.5434L93.6231 12.5575C93.6843 12.6616 93.7179 12.7765 93.7179 12.9239H95.7179ZM95.3469 11.5434C95.1096 11.14 94.7871 10.8094 94.3861 10.5664L93.3495 12.2768C93.4608 12.3443 93.5498 12.4329 93.6231 12.5575L95.3469 11.5434ZM94.4046 10.5779C93.9842 10.3103 93.5138 10.177 93.0176 10.177V12.177C93.1425 12.177 93.2389 12.2067 93.3309 12.2652L94.4046 10.5779ZM93.0176 10.177H90.2924V12.177H93.0176V10.177ZM89.2924 11.177V14.6708H91.2924V11.177H89.2924Z" fill="black" mask="url(#path-4-outside-1_2475_1289)"/>
</g>
<defs>
<filter id="filter0_d_2475_1289" x="37.3975" y="8.19562" width="65.8158" height="24.3044" filterUnits="userSpaceOnUse" color-interpolation-filters="sRGB">
<feFlood flood-opacity="0" result="BackgroundImageFix"/>
<feColorMatrix in="SourceAlpha" type="matrix" values="0 0 0 0 0 0 0 0 0 0 0 0 0 0 0 0 0 0 127 0" result="hardAlpha"/>
<feOffset dy="4"/>
<feGaussianBlur stdDeviation="2"/>
<feComposite in2="hardAlpha" operator="out"/>
<feColorMatrix type="matrix" values="0 0 0 0 0 0 0 0 0 0 0 0 0 0 0 0 0 0 0.25 0"/>
<feBlend mode="normal" in2="BackgroundImageFix" result="effect1_dropShadow_2475_1289"/>
<feBlend mode="normal" in="SourceGraphic" in2="effect1_dropShadow_2475_1289" result="shape"/>
</filter>
</defs>
</svg>
