<svg width="41" height="40" viewBox="0 0 41 40" fill="none" xmlns="http://www.w3.org/2000/svg">
<path fill-rule="evenodd" clip-rule="evenodd" d="M18 18.75C15.9158 18.75 14.1727 17.2347 13.8165 15.25H10C9.59 15.25 9.25 14.91 9.25 14.5C9.25 14.09 9.59 13.75 10 13.75H13.8165C14.1727 11.7653 15.9158 10.25 18 10.25C20.34 10.25 22.25 12.16 22.25 14.5C22.25 16.84 20.34 18.75 18 18.75ZM18 11.75C16.48 11.75 15.25 12.98 15.25 14.5C15.25 16.02 16.48 17.25 18 17.25C19.52 17.25 20.75 16.02 20.75 14.5C20.75 12.98 19.52 11.75 18 11.75ZM24 15.25H30C30.41 15.25 30.75 14.91 30.75 14.5C30.75 14.09 30.41 13.75 30 13.75H24C23.59 13.75 23.25 14.09 23.25 14.5C23.25 14.91 23.59 15.25 24 15.25ZM26.1835 26.25H30C30.41 26.25 30.75 25.91 30.75 25.5C30.75 25.09 30.41 24.75 30 24.75H26.1835C25.8273 22.7653 24.0842 21.25 22 21.25C19.66 21.25 17.75 23.16 17.75 25.5C17.75 27.84 19.66 29.75 22 29.75C24.0842 29.75 25.8273 28.2347 26.1835 26.25ZM16 26.25H10C9.59 26.25 9.25 25.91 9.25 25.5C9.25 25.09 9.59 24.75 10 24.75H16C16.41 24.75 16.75 25.09 16.75 25.5C16.75 25.91 16.41 26.25 16 26.25ZM19.25 25.5C19.25 23.98 20.48 22.75 22 22.75C23.52 22.75 24.75 23.98 24.75 25.5C24.75 27.02 23.52 28.25 22 28.25C20.48 28.25 19.25 27.02 19.25 25.5Z" fill="#898989"/>
</svg>
